<svg viewBox="0 0 15 15" fill="none" xmlns="http://www.w3.org/2000/svg"><path fill-rule="evenodd" clip-rule="evenodd" d="M3.534.272a.5.5 0 00-.89 0l-.806 1.572-1.567.807a.5.5 0 000 .89l1.567.807.806 1.572a.5.5 0 00.89 0l.805-1.572 1.567-.808a.5.5 0 000-.889L4.34 1.844 3.534.272zm-.879 2.17l.434-.845.433.846a.5.5 0 00.216.216l.848.437-.848.437a.5.5 0 00-.216.216l-.433.846-.434-.846a.5.5 0 00-.216-.216l-.847-.437.847-.437a.5.5 0 00.216-.216zM10.672.292a1 1 0 00-1.338 1.34 6.5 6.5 0 01-6.78 9.303 1 1 0 00-.866 1.68 7.703 7.703 0 005.58 2.385c4.272 0 7.731-3.472 7.731-7.749A7.751 7.751 0 0010.672.29zM3.5 12.844a6.77 6.77 0 01-1.09-.922 7.56 7.56 0 001.604.062A7.5 7.5 0 0010.23 1.188 6.741 6.741 0 0114 7.25c0 3.728-3.014 6.75-6.731 6.75A6.686 6.686 0 013.5 12.843z" fill="#6653D9"/></svg>