<svg viewBox="0 0 15 15" fill="none" xmlns="http://www.w3.org/2000/svg"><path fill-rule="evenodd" clip-rule="evenodd" d="M7.5 0a.5.5 0 01.5.5v2a.5.5 0 01-1 0v-2a.5.5 0 01.5-.5zm0 12a.5.5 0 01.5.5v2a.5.5 0 01-1 0v-2a.5.5 0 01.5-.5zM11 7.5a3.5 3.5 0 11-7 0 3.5 3.5 0 017 0zM7.5 10a2.5 2.5 0 100-5 2.5 2.5 0 000 5zm-7-3a.5.5 0 000 1h2a.5.5 0 000-1h-2zm12 0a.5.5 0 000 1h2a.5.5 0 000-1h-2zm.303-4.803a.5.5 0 010 .707L11.39 4.318a.5.5 0 11-.707-.707l1.414-1.414a.5.5 0 01.707 0zm-8.485 8.485a.5.5 0 010 .707l-1.414 1.414a.5.5 0 11-.707-.707l1.414-1.414a.5.5 0 01.707 0zM2.904 2.197a.5.5 0 00-.707.707L3.61 4.318a.5.5 0 00.707-.707L2.904 2.197zm8.485 8.485a.5.5 0 10-.707.707l1.414 1.414a.5.5 0 10.707-.707l-1.414-1.414z" fill="#17161A"/></svg>